<svg xmlns="http://www.w3.org/2000/svg" xmlns:xlink="http://www.w3.org/1999/xlink" viewBox="0,0,256,256" width="200px" height="200px" fill-rule="nonzero"><g fill="none" fill-rule="nonzero" stroke="none" stroke-width="1" stroke-linecap="butt" stroke-linejoin="miter" stroke-miterlimit="10" stroke-dasharray="" stroke-dashoffset="0" font-family="none" font-weight="none" font-size="none" text-anchor="none" style="mix-blend-mode: normal"><g transform="scale(2.56,2.56)"><path d="M77,12c-0.55228,0 -1,0.44772 -1,1c0,0.55228 0.44772,1 1,1c0.55228,0 1,-0.44772 1,-1c0,-0.55228 -0.44772,-1 -1,-1z" fill="#827ef3"></path><path d="M50,13c-20.43454,0 -37,16.56546 -37,37c0,20.43454 16.56546,37 37,37c20.43454,0 37,-16.56546 37,-37c0,-20.43454 -16.56546,-37 -37,-37z" fill="#ebebfd"></path><path d="M83,11c-2.20914,0 -4,1.79086 -4,4c0,2.20914 1.79086,4 4,4c2.20914,0 4,-1.79086 4,-4c0,-2.20914 -1.79086,-4 -4,-4z" fill="#827ef3"></path><path d="M87,22c-1.10457,0 -2,0.89543 -2,2c0,1.10457 0.89543,2 2,2c1.10457,0 2,-0.89543 2,-2c0,-1.10457 -0.89543,-2 -2,-2z" fill="#caa24c"></path><path d="M81,74c-1.10457,0 -2,0.89543 -2,2c0,1.10457 0.89543,2 2,2c1.10457,0 2,-0.89543 2,-2c0,-1.10457 -0.89543,-2 -2,-2zM15,59c-2.20914,0 -4,1.79086 -4,4c0,2.20914 1.79086,4 4,4c2.20914,0 4,-1.79086 4,-4c0,-2.20914 -1.79086,-4 -4,-4z" fill="#827ef3"></path><path d="M25,85c-1.10457,0 -2,0.89543 -2,2c0,1.10457 0.89543,2 2,2c1.10457,0 2,-0.89543 2,-2c0,-1.10457 -0.89543,-2 -2,-2z" fill="#caa24c"></path><path d="M18.5,49c-1.38071,0 -2.5,1.11929 -2.5,2.5c0,1.38071 1.11929,2.5 2.5,2.5c1.38071,0 2.5,-1.11929 2.5,-2.5c0,-1.38071 -1.11929,-2.5 -2.5,-2.5zM79.5,32c-0.82843,0 -1.5,0.67157 -1.5,1.5c0,0.82843 0.67157,1.5 1.5,1.5c0.82843,0 1.5,-0.67157 1.5,-1.5c0,-0.82843 -0.67157,-1.5 -1.5,-1.5z" fill="#caa24c"></path><path d="M29.847,66.3c-2.838,0 -5.147,-2.309 -5.147,-5.147v-23.305c0,-2.839 2.309,-5.147 5.147,-5.147h41.305c2.839,0 5.147,2.309 5.147,5.147v23.305c0,2.839 -2.309,5.147 -5.147,5.147z" fill="#b7baf4"></path><path d="M71.153,33.4c2.452,0 4.447,1.995 4.447,4.447v23.306c0,2.452 -1.995,4.447 -4.447,4.447h-41.306c-2.452,0 -4.447,-1.995 -4.447,-4.447v-23.306c0,-2.452 1.995,-4.447 4.447,-4.447h41.306M71.153,32h-41.306c-3.229,0 -5.847,2.618 -5.847,5.847v23.306c0,3.229 2.618,5.847 5.847,5.847h41.305c3.23,0 5.848,-2.618 5.848,-5.847v-23.306c0,-3.229 -2.618,-5.847 -5.847,-5.847z" fill="#472b29"></path><path d="M25.333,38.625h50.25v6h-50.25z" fill="#dda25c"></path><path d="M29.5,47.5h25v4h-25z" fill="#fefdef"></path><path d="M54.5,52h-25c-0.276,0 -0.5,-0.224 -0.5,-0.5v-4c0,-0.276 0.224,-0.5 0.5,-0.5h25c0.276,0 0.5,0.224 0.5,0.5v4c0,0.276 -0.224,0.5 -0.5,0.5zM30,51h24v-3h-24z" fill="#472b29"></path><path d="M58.5,47.5h8v4h-8z" fill="#fefdef"></path><path d="M66.5,52h-8c-0.276,0 -0.5,-0.224 -0.5,-0.5v-4c0,-0.276 0.224,-0.5 0.5,-0.5h8c0.276,0 0.5,0.224 0.5,0.5v4c0,0.276 -0.224,0.5 -0.5,0.5zM59,51h7v-3h-7z" fill="#472b29"></path><g><path d="M36.333,61.5h-4.667c-1.197,0 -2.167,-0.97 -2.167,-2.167v-2.667c0,-1.197 0.97,-2.167 2.167,-2.167h4.667c1.197,0 2.167,0.97 2.167,2.167v2.667c0,1.197 -0.97,2.167 -2.167,2.167z" fill="#ceccbe"></path><path d="M36.333,62h-4.667c-1.47,0 -2.666,-1.196 -2.666,-2.667v-2.666c0,-1.471 1.196,-2.667 2.667,-2.667h4.667c1.47,0 2.666,1.196 2.666,2.667v2.666c0,1.471 -1.196,2.667 -2.667,2.667zM31.667,55c-0.919,0 -1.667,0.748 -1.667,1.667v2.666c0,0.919 0.748,1.667 1.667,1.667h4.667c0.918,0 1.666,-0.748 1.666,-1.667v-2.666c0,-0.919 -0.748,-1.667 -1.667,-1.667z" fill="#472b29"></path></g><g fill="#472b29"><path d="M58.5,56h-14c-0.276,0 -0.5,-0.224 -0.5,-0.5c0,-0.276 0.224,-0.5 0.5,-0.5h14c0.276,0 0.5,0.224 0.5,0.5c0,0.276 -0.224,0.5 -0.5,0.5z"></path></g><g fill="#472b29"><path d="M65.5,59h-21c-0.276,0 -0.5,-0.224 -0.5,-0.5c0,-0.276 0.224,-0.5 0.5,-0.5h21c0.276,0 0.5,0.224 0.5,0.5c0,0.276 -0.224,0.5 -0.5,0.5z"></path></g><g fill="#472b29"><path d="M53.5,62h-9c-0.276,0 -0.5,-0.224 -0.5,-0.5c0,-0.276 0.224,-0.5 0.5,-0.5h9c0.276,0 0.5,0.224 0.5,0.5c0,0.276 -0.224,0.5 -0.5,0.5z"></path></g><g fill="#472b29"><path d="M62.5,62h-6c-0.276,0 -0.5,-0.224 -0.5,-0.5c0,-0.276 0.224,-0.5 0.5,-0.5h6c0.276,0 0.5,0.224 0.5,0.5c0,0.276 -0.224,0.5 -0.5,0.5z"></path></g><g fill="#472b29"><path d="M69.5,56h-8c-0.276,0 -0.5,-0.224 -0.5,-0.5c0,-0.276 0.224,-0.5 0.5,-0.5h8c0.276,0 0.5,0.224 0.5,0.5c0,0.276 -0.224,0.5 -0.5,0.5z"></path></g><g fill="#472b29"><path d="M34.5,39h-9c-0.276,0 -0.5,-0.224 -0.5,-0.5c0,-0.276 0.224,-0.5 0.5,-0.5h9c0.276,0 0.5,0.224 0.5,0.5c0,0.276 -0.224,0.5 -0.5,0.5z"></path></g><g fill="#472b29"><path d="M43.5,45h-18c-0.276,0 -0.5,-0.224 -0.5,-0.5c0,-0.276 0.224,-0.5 0.5,-0.5h18c0.276,0 0.5,0.224 0.5,0.5c0,0.276 -0.224,0.5 -0.5,0.5z"></path></g><g fill="#472b29"><path d="M75.5,45h-29c-0.276,0 -0.5,-0.224 -0.5,-0.5c0,-0.276 0.224,-0.5 0.5,-0.5h29c0.276,0 0.5,0.224 0.5,0.5c0,0.276 -0.224,0.5 -0.5,0.5z"></path></g><g fill="#472b29"><path d="M43.5,39h-5c-0.276,0 -0.5,-0.224 -0.5,-0.5c0,-0.276 0.224,-0.5 0.5,-0.5h5c0.276,0 0.5,0.224 0.5,0.5c0,0.276 -0.224,0.5 -0.5,0.5z"></path></g><g fill="#472b29"><path d="M75.5,39h-28c-0.276,0 -0.5,-0.224 -0.5,-0.5c0,-0.276 0.224,-0.5 0.5,-0.5h28c0.276,0 0.5,0.224 0.5,0.5c0,0.276 -0.224,0.5 -0.5,0.5z"></path></g></g></g></svg>