<svg xmlns="http://www.w3.org/2000/svg" xmlns:xlink="http://www.w3.org/1999/xlink" viewBox="0,0,256,256" width="200px" height="200px" fill-rule="nonzero"><g fill="none" fill-rule="nonzero" stroke="none" stroke-width="1" stroke-linecap="butt" stroke-linejoin="miter" stroke-miterlimit="10" stroke-dasharray="" stroke-dashoffset="0" font-family="none" font-weight="none" font-size="none" text-anchor="none" style="mix-blend-mode: normal"><g transform="scale(2.56,2.56)"><path d="M77,12c-0.55228,0 -1,0.44772 -1,1c0,0.55228 0.44772,1 1,1c0.55228,0 1,-0.44772 1,-1c0,-0.55228 -0.44772,-1 -1,-1z" fill="#847ef5"></path><path d="M50,13c-20.43454,0 -37,16.56546 -37,37c0,20.43454 16.56546,37 37,37c20.43454,0 37,-16.56546 37,-37c0,-20.43454 -16.56546,-37 -37,-37z" fill="#ecebfd"></path><path d="M83,11c-2.20914,0 -4,1.79086 -4,4c0,2.20914 1.79086,4 4,4c2.20914,0 4,-1.79086 4,-4c0,-2.20914 -1.79086,-4 -4,-4z" fill="#847ef5"></path><path d="M87,22c-1.10457,0 -2,0.89543 -2,2c0,1.10457 0.89543,2 2,2c1.10457,0 2,-0.89543 2,-2c0,-1.10457 -0.89543,-2 -2,-2z" fill="#cb9f49"></path><path d="M81,74c-1.10457,0 -2,0.89543 -2,2c0,1.10457 0.89543,2 2,2c1.10457,0 2,-0.89543 2,-2c0,-1.10457 -0.89543,-2 -2,-2zM15,59c-2.20914,0 -4,1.79086 -4,4c0,2.20914 1.79086,4 4,4c2.20914,0 4,-1.79086 4,-4c0,-2.20914 -1.79086,-4 -4,-4z" fill="#8279f9"></path><path d="M25,85c-1.10457,0 -2,0.89543 -2,2c0,1.10457 0.89543,2 2,2c1.10457,0 2,-0.89543 2,-2c0,-1.10457 -0.89543,-2 -2,-2z" fill="#cb9f49"></path><path d="M18.5,49c-1.38071,0 -2.5,1.11929 -2.5,2.5c0,1.38071 1.11929,2.5 2.5,2.5c1.38071,0 2.5,-1.11929 2.5,-2.5c0,-1.38071 -1.11929,-2.5 -2.5,-2.5zM79.5,32c-0.82843,0 -1.5,0.67157 -1.5,1.5c0,0.82843 0.67157,1.5 1.5,1.5c0.82843,0 1.5,-0.67157 1.5,-1.5c0,-0.82843 -0.67157,-1.5 -1.5,-1.5z" fill="#cb9f49"></path><path d="M68.121,70.526c-0.405,-2.146 -1.28,-3.403 -3.342,-4.026c-0.09,-0.027 -0.21,-0.071 -0.345,-0.123c-0.156,-0.068 -0.354,-0.148 -0.586,-0.238c-1.249,-0.528 -8.673,-3.267 -8.673,-3.267c-0.612,-0.155 -1.01,-0.591 -1.24,-1.082c-0.38,-0.811 -0.233,-2.914 -0.233,-2.914c0,0 -3.104,1.062 -5.041,1.424c-1.9,0.185 -5.983,-2.272 -5.983,-2.272c0,0 -0.096,3.037 -0.225,3.712c-0.102,0.53 -0.672,0.978 -1.284,1.133l-7.124,2.583c-0.788,0.206 -1.544,0.5 -2.209,0.911c-1.793,1.107 -2.701,2.769 -3.163,4.16c0,0 -0.469,3.316 -0.45,3.435c-0.044,0.464 -0.09,0.975 -0.137,1.512c7.764,5.257 14,6.73 24.699,6.262c4.861,-0.213 12.099,-2.613 15.891,-4.527c-0.201,-4.225 -0.555,-6.683 -0.555,-6.683z" fill="#ce9065"></path><path d="M68.218,70.645c-0.405,-2.146 -1.28,-3.403 -3.342,-4.026c-0.09,-0.027 -0.21,-0.071 -0.345,-0.123c-0.156,-0.068 -0.354,-0.148 -0.586,-0.238c-0.676,-0.286 -7.327,-2.607 -9.464,-3.403c-2.917,2.055 -4.229,2.847 -6.175,2.847c-2.075,0 -3.267,-1.256 -6.158,-3l-3.237,1.195c-0.008,-0.004 -0.016,-0.009 -0.024,-0.013l-0.314,0.083l-4.431,1.607c-0.788,0.206 -1.544,0.5 -2.209,0.911c-1.793,1.107 -2.701,2.769 -3.163,4.16c0,0 -0.469,3.316 -0.45,3.435c-0.044,0.464 -0.09,5.444 -0.137,5.981c7.764,5.257 14,6.73 24.699,6.262c4.861,-0.213 12.099,-2.613 15.891,-4.527c-0.201,-4.225 -0.555,-11.151 -0.555,-11.151z" fill="#b5bafd"></path><path d="M55.201,73.272c-0.734,-0.922 -1.246,-1.991 -1.991,-2.903c-0.18,-0.22 -0.193,-0.49 0,-0.707c0.42,-0.473 1.003,-0.712 1.575,-0.949c0.63,-0.26 1.24,-0.544 1.877,-0.779c-0.402,-1.668 -1.195,-3.179 -2.187,-4.573c-0.131,-0.185 -0.105,-0.364 -0.005,-0.499c-2.91,2.05 -4.221,2.84 -6.166,2.84c-1.983,0 -3.176,-1.154 -5.801,-2.778c-0.245,1.521 -1.625,3.575 -0.602,5.068c0.404,0.59 1.234,0.794 1.504,1.521c0.381,1.03 -0.189,2.514 -0.217,3.563c-0.055,2.13 0.531,3.727 1.326,5.648c0.035,0.084 0.041,0.16 0.032,0.229c0.637,1.265 1.355,2.57 1.835,3.883c0.42,1.15 0.672,2.347 0.958,3.532c0.512,0.018 1.039,0.026 1.573,0.03c0.477,-2.289 1.785,-4.509 2.694,-6.65c0.996,-2.343 1.931,-4.54 3.595,-6.476z" fill="#fdfcef"></path><path d="M35.5,83.875c-0.207,0 -0.375,-0.168 -0.375,-0.375v-3c0,-0.207 0.168,-0.375 0.375,-0.375c0.207,0 0.375,0.168 0.375,0.375v3c0,0.207 -0.168,0.375 -0.375,0.375zM61.5,84.875c-0.207,0 -0.375,-0.168 -0.375,-0.375v-4c0,-0.207 0.168,-0.375 0.375,-0.375c0.207,0 0.375,0.168 0.375,0.375v4c0,0.207 -0.168,0.375 -0.375,0.375zM53.832,61.931c0,0 2.364,1.005 4.084,6.53l-4.084,1.507l2.633,3.015l-7.78,13.558c0.001,0 3.753,-13.835 5.147,-24.61zM42.546,61.931c0,0 -2.363,1.005 -4.084,6.53l4.084,1.507l-2.632,3.015l7.647,13.558c0,0 -3.62,-13.835 -5.015,-24.61z" fill="#898ce1"></path><path d="M60.418,44c-0.117,-0.008 -0.236,-0.009 -0.36,-0.009c-0.965,-0.047 -1.24,0.338 -1.196,-0.259c0.078,-1.06 -0.07,-5.361 -0.07,-5.578c0,-4.456 -4.653,-8.091 -10.792,-8.292v-0.013c0.286,0.001 0.248,0.006 0.208,0.007c-0.039,-0.001 -0.077,-0.006 0.792,-0.007v0.013c-6.722,0.202 -11.375,3.836 -11.375,8.292c0,0.217 -0.148,4.517 -0.07,5.578c0.044,0.597 -0.231,0.212 -1.196,0.259c-0.124,0 -0.243,0.001 -0.36,0.009c-1.058,0.071 -1.914,0.744 -2.097,1.578c0.13,0.079 0.611,3.731 1.391,5.17c0.436,0.803 1.116,0.915 1.815,1.434c0.387,0.287 0.462,0.612 0.568,1.041c0.392,1.59 1.481,2.942 2.674,4.096c0.589,0.57 4.499,4.738 7.858,4.527c3.375,-0.127 7.269,-3.957 7.858,-4.527c1.193,-1.154 2.282,-2.506 2.674,-4.096c0.106,-0.43 0.18,-0.754 0.568,-1.041c0.699,-0.519 1.379,-0.63 1.815,-1.434c0.78,-1.439 1.262,-5.091 1.391,-5.17c-0.182,-0.834 -1.038,-1.508 -2.096,-1.578z" fill="#db9e71"></path><path d="M48.269,51.059c0.683,0 1.345,-0.298 1.771,-0.797c0.043,-0.05 0.037,-0.126 -0.013,-0.169v0c-0.05,-0.043 -0.125,-0.038 -0.169,0.012c-0.347,0.397 -0.927,0.625 -1.589,0.625c-0.663,0 -1.242,-0.228 -1.589,-0.625c-0.024,-0.027 -0.057,-0.041 -0.091,-0.041c-0.028,0 -0.056,0.01 -0.078,0.029c-0.05,0.043 -0.056,0.119 -0.013,0.169c0.426,0.499 1.088,0.797 1.771,0.797zM46.091,41.833l0.433,-0.832c-1.832,-0.429 -3.941,-0.361 -5.682,0.179l0.546,0.811c1.431,-0.472 3.191,-0.532 4.703,-0.158zM55.262,41.833l0.433,-0.832c-1.832,-0.429 -3.941,-0.361 -5.682,0.179l0.546,0.811c1.432,-0.472 3.192,-0.532 4.703,-0.158zM43.454,43.007c-0.44,0 -0.826,0.291 -1.049,0.731c0.056,-0.017 0.113,-0.029 0.174,-0.029c0.361,0 0.653,0.327 0.653,0.729c0,0.403 -0.293,0.729 -0.653,0.729c-0.118,0 -0.227,-0.038 -0.323,-0.099c0.154,0.661 0.632,1.142 1.199,1.142c0.691,0 1.252,-0.717 1.252,-1.602c-0.001,-0.883 -0.562,-1.601 -1.253,-1.601zM53.031,43.007c-0.376,0 -0.712,0.213 -0.941,0.548c0.072,-0.03 0.149,-0.049 0.23,-0.049c0.361,0 0.653,0.327 0.653,0.729c0,0.403 -0.293,0.729 -0.653,0.729c-0.224,0 -0.421,-0.126 -0.539,-0.318c0.016,0.867 0.569,1.563 1.25,1.563c0.691,0 1.252,-0.717 1.252,-1.602c-0.001,-0.882 -0.561,-1.6 -1.252,-1.6zM53.562,52.915c0.051,-0.042 0.059,-0.117 0.018,-0.168v0c-0.041,-0.051 -0.117,-0.06 -0.169,-0.018c-1.128,0.899 -3.002,1.415 -5.141,1.415c-2.139,0 -4.013,-0.516 -5.142,-1.416c-0.022,-0.018 -0.048,-0.026 -0.075,-0.026c-0.035,0 -0.07,0.015 -0.094,0.045c-0.041,0.051 -0.034,0.127 0.017,0.169c1.274,1.041 3.253,1.663 5.293,1.663c2.04,-0.001 4.018,-0.622 5.293,-1.664z" fill="#512c2b"></path><path d="M49.324,86.962c-8.907,0 -14.656,-1.781 -21.52,-6.428c-0.15,-0.102 -0.233,-0.276 -0.218,-0.457c0.009,-0.108 0.014,-0.475 0.021,-1.007c0.033,-2.182 0.1,-6.721 0.582,-8.497c0.654,-2.417 1.612,-3.362 3.382,-4.455c0.662,-0.408 1.451,-0.734 2.345,-0.968l7.08,-2.569c0.503,-0.131 0.906,-0.457 0.963,-0.757c0.029,-0.149 0.085,-0.611 0.153,-2.039c-1.032,-0.729 -1.872,-1.386 -2.113,-1.622c-1.56,-1.526 -2.453,-2.918 -2.81,-4.381c-0.109,-0.447 -0.156,-0.603 -0.382,-0.772c-0.207,-0.154 -0.413,-0.27 -0.609,-0.38c-0.483,-0.272 -0.982,-0.555 -1.346,-1.232c-0.838,-1.564 -1.451,-4.521 -1.451,-5.465c0,-0.035 0.004,-0.071 0.011,-0.105c0.235,-1.086 1.285,-1.903 2.552,-1.989c0.128,-0.009 0.258,-0.01 0.393,-0.01c0.269,-0.013 0.502,0.006 0.685,0.03c-0.036,-1.206 0.036,-3.76 0.068,-4.913c0.008,-0.288 0.014,-0.479 0.014,-0.52c0,-4.527 4.249,-8.156 10.076,-8.796c0.083,-0.064 0.187,-0.104 0.299,-0.104c0.278,0 0.498,0 0.67,0.013c0.222,-0.026 0.464,-0.035 0.627,0.085c6.066,0.62 10.495,4.257 10.495,8.802c0,0.041 0.005,0.231 0.014,0.52c0.033,1.177 0.106,3.813 0.067,4.913c0.184,-0.025 0.418,-0.05 0.71,-0.029c0.107,-0.002 0.241,0.002 0.368,0.009c1.268,0.086 2.317,0.903 2.552,1.989c0.007,0.034 0.011,0.07 0.011,0.105c0,1.089 -0.65,3.971 -1.45,5.465c-0.364,0.678 -0.863,0.96 -1.346,1.232c-0.197,0.11 -0.403,0.226 -0.61,0.381c-0.226,0.17 -0.273,0.325 -0.376,0.752c-0.362,1.482 -1.255,2.874 -2.815,4.4c-0.255,0.25 -1.157,0.984 -2.242,1.768c-0.002,0.858 0.075,1.531 0.213,1.826c0.141,0.299 0.413,0.683 0.911,0.81c0.354,0.127 7.499,2.764 8.745,3.292c0.225,0.086 0.428,0.169 0.589,0.238c0.103,0.039 0.212,0.079 0.294,0.104c2.121,0.641 3.224,1.96 3.687,4.411c0.004,0.022 0.007,0.045 0.008,0.067c0,0 0.354,6.928 0.554,11.152c0.009,0.197 -0.098,0.381 -0.274,0.47c-4.042,2.041 -11.346,4.373 -16.094,4.581c-1.216,0.053 -2.374,0.08 -3.483,0.08zM28.595,79.86c7.41,4.964 13.548,6.492 24.167,6.021c4.505,-0.197 11.397,-2.371 15.398,-4.33c-0.194,-4.064 -0.51,-10.273 -0.537,-10.788c-0.396,-2.065 -1.237,-3.078 -2.989,-3.606c-0.099,-0.03 -0.231,-0.078 -0.379,-0.135c-0.171,-0.073 -0.363,-0.15 -0.588,-0.238c-1.239,-0.524 -8.592,-3.237 -8.666,-3.265c-0.634,-0.158 -1.192,-0.639 -1.52,-1.339c-0.226,-0.482 -0.329,-1.33 -0.305,-2.519c0.003,-0.158 0.081,-0.306 0.21,-0.397c1.214,-0.864 2.13,-1.621 2.33,-1.816c1.421,-1.39 2.228,-2.63 2.538,-3.902c0.115,-0.473 0.228,-0.941 0.753,-1.335c0.245,-0.184 0.487,-0.321 0.719,-0.452c0.423,-0.239 0.729,-0.412 0.956,-0.834c0.754,-1.406 1.309,-4.022 1.332,-4.937c-0.163,-0.618 -0.838,-1.1 -1.63,-1.152c-0.105,-0.007 -0.214,-0.008 -0.326,-0.008c-0.331,-0.017 -0.548,0.02 -0.725,0.047c-0.233,0.039 -0.525,0.084 -0.762,-0.134c-0.244,-0.225 -0.22,-0.553 -0.208,-0.711c0.061,-0.841 -0.025,-3.904 -0.057,-5.058c-0.009,-0.303 -0.014,-0.504 -0.014,-0.547c0,-4.183 -4.382,-7.501 -10.278,-7.862c-5.672,0.363 -9.889,3.683 -9.889,7.862c0,0.043 -0.005,0.244 -0.014,0.547c-0.032,1.153 -0.118,4.217 -0.057,5.058c0.012,0.158 0.036,0.486 -0.209,0.711c-0.235,0.217 -0.527,0.172 -0.762,0.134c-0.177,-0.028 -0.397,-0.059 -0.699,-0.048c-0.137,0.001 -0.245,0.002 -0.351,0.009c-0.791,0.053 -1.466,0.534 -1.629,1.152c0.024,0.907 0.618,3.604 1.332,4.937c0.226,0.422 0.532,0.595 0.956,0.834c0.232,0.131 0.474,0.269 0.718,0.451c0.524,0.395 0.638,0.861 0.748,1.313c0.316,1.296 1.123,2.536 2.544,3.926c0.196,0.192 1.073,0.881 2.211,1.676c0.141,0.099 0.221,0.262 0.213,0.433c-0.058,1.301 -0.12,2.127 -0.182,2.455c-0.154,0.803 -0.941,1.344 -1.652,1.523l-7.076,2.568c-0.842,0.223 -1.539,0.51 -2.117,0.866c-1.605,0.99 -2.369,1.746 -2.943,3.865c-0.448,1.655 -0.517,6.277 -0.546,8.25c-0.006,0.32 -0.01,0.585 -0.015,0.775z" fill="#472b29"></path><path d="M60.48,48.881l-0.597,-0.066l0.201,-1.779l-1.011,0.438l-0.238,-0.551l1.486,-0.644c0.097,-0.043 0.211,-0.03 0.297,0.034c0.086,0.063 0.132,0.168 0.12,0.274zM36.262,48.538l-0.258,-2.294c-0.012,-0.106 0.034,-0.211 0.12,-0.274c0.086,-0.065 0.2,-0.077 0.298,-0.034l1.486,0.644l-0.238,0.551l-1.011,-0.438l0.201,1.779z" fill="#895d3d"></path><g fill="#472b29"><path d="M37.602,52.98c-0.001,0 -0.002,0 -0.004,0c-0.11,-0.002 -0.198,-0.094 -0.196,-0.204l0.165,-8.647c0.002,-0.109 0.091,-0.196 0.2,-0.196c0.001,0 0.002,0 0.004,0c0.11,0.002 0.198,0.094 0.196,0.204l-0.165,8.647c-0.003,0.11 -0.092,0.196 -0.2,0.196z"></path></g><g fill="#472b29"><path d="M58.981,52.98c-0.109,0 -0.198,-0.087 -0.2,-0.196l-0.164,-8.647c-0.002,-0.11 0.086,-0.202 0.196,-0.204c0.001,0 0.003,0 0.004,0c0.109,0 0.198,0.087 0.2,0.196l0.164,8.647c0.002,0.11 -0.086,0.202 -0.196,0.204c-0.002,0 -0.003,0 -0.004,0z"></path></g><g fill="#5e2e2e"><path d="M63.081,36.324c-2.259,0.165 -3.678,-2.542 -5.151,-4.539c-3.593,-4.868 -9.882,-6.379 -15.115,-3.574c-1.393,0.747 -2.509,1.545 -2.831,2.269c-2.646,1.125 -4.131,4.562 -4.714,7.867c-0.68,3.856 2.587,9.824 2.781,6.503c0.14,-2.397 1.035,-5.747 1.941,-7.831c0.407,-0.936 0.777,-1.929 1.043,-2.955c0.312,2.492 3.567,4.863 5.607,4.885c0.218,0.002 0.318,-0.858 0.259,-2.031c0.533,0.956 1.291,1.758 2.136,2.349c1.327,0.929 2.855,1.395 4.379,1.722c-0.54,-0.226 -0.859,-0.892 -0.958,-1.548c-0.052,-0.341 -0.056,-0.686 -0.051,-1.033c1.331,0.921 2.759,1.6 4.313,1.658c0.179,0.007 0.36,0.001 0.54,-0.01c0.807,1.668 1.084,3.674 1.167,5.103c0.194,3.321 2.667,-2.226 1.987,-6.082c-0.005,-0.028 -0.011,-0.057 -0.016,-0.086c1.018,-0.641 1.947,-1.548 2.683,-2.667zM41.372,32.291c0.005,-0.046 0.01,-0.093 0.015,-0.139c0.017,0.006 0.033,0.012 0.051,0.017c-0.025,0.04 -0.044,0.081 -0.066,0.122z"></path></g><g fill="#472b29"><path d="M48.374,62.381c-2.039,0 -5.461,-2.611 -5.612,-2.728c-0.109,-0.084 -0.13,-0.241 -0.046,-0.351c0.085,-0.11 0.241,-0.131 0.351,-0.046c0.037,0.028 3.709,2.829 5.497,2.613c1.828,-0.218 4.761,-2.377 4.79,-2.399c0.111,-0.081 0.269,-0.059 0.35,0.053c0.083,0.11 0.059,0.268 -0.052,0.35c-0.125,0.092 -3.069,2.26 -5.028,2.493c-0.082,0.01 -0.165,0.015 -0.25,0.015z"></path></g><g fill="#472b29"><path d="M29,25h1v12h-1z"></path></g><g><path d="M31.405,36.671c-0.188,-0.715 -0.774,-1.3 -1.491,-1.482c-1.411,-0.358 -2.675,0.699 -2.675,2.05c0,0.334 0.084,0.646 0.222,0.928h-0.017l1.896,3.843l1.757,-3.561c0.339,-0.484 0.484,-1.112 0.308,-1.778z" fill="#ecad6f"></path><path d="M29.341,42.51v0c-0.19,0 -0.364,-0.108 -0.448,-0.278l-1.896,-3.843c-0.021,-0.043 -0.036,-0.087 -0.043,-0.132c-0.142,-0.329 -0.213,-0.671 -0.213,-1.018c0,-0.814 0.369,-1.568 1.012,-2.069c0.644,-0.502 1.475,-0.673 2.286,-0.466c0.89,0.226 1.617,0.947 1.852,1.84v0c0.203,0.77 0.068,1.548 -0.38,2.191l-1.719,3.496c-0.087,0.17 -0.261,0.279 -0.451,0.279zM27.95,38.063l1.391,2.817l1.309,-2.652c0.315,-0.463 0.398,-0.947 0.272,-1.43c-0.142,-0.537 -0.596,-0.989 -1.131,-1.125c-0.512,-0.132 -1.02,-0.029 -1.425,0.286c-0.398,0.31 -0.626,0.776 -0.626,1.28c0,0.238 0.058,0.477 0.171,0.707c0.018,0.038 0.031,0.076 0.039,0.117z" fill="#472b29"></path></g><g><path d="M48,35.5c-6.21,0 -10.07,-1.286 -10.469,-2.215l-0.031,-0.072v-8.04h21v8.065l-0.031,0.047c-0.399,0.929 -4.259,2.215 -10.469,2.215z" fill="#babcfb"></path><path d="M58,25.673v7.433c-0.404,0.69 -4.034,1.894 -10,1.894c-5.971,0 -9.601,-1.206 -10,-1.894v-7.433h20M59,24.673h-22v8.81h0.072c0.608,1.415 5.267,2.517 10.928,2.517c5.661,0 10.32,-1.102 10.928,-2.517h0.072v-8.81z" fill="#472b29"></path></g><g><path d="M28.982,25.304l19.182,-6.077l19.18,6.075l-19.18,6.078z" fill="#8e95f9"></path><path d="M48.163,19.751l17.525,5.552l-17.526,5.553l-17.525,-5.551l17.526,-5.554M48.163,18.702l-20.837,6.602l20.837,6.6l20.837,-6.602l-20.837,-6.6z" fill="#472b29"></path></g></g></g></svg>